ISO-10303-21;
HEADER;
FILE_DESCRIPTION(('STEP AP214'),'1');
FILE_NAME('aileron2.stl.stp','2025-12-05T18:03:02',(' '),(' '),'Spatial InterOp 3D',' ',' ');
FILE_SCHEMA(('AUTOMOTIVE_DESIGN { 1 0 10303 214 1 1 1 1 }'));
ENDSEC;
DATA;
#1=MECHANICAL_DESIGN_GEOMETRIC_PRESENTATION_REPRESENTATION(' ',(#10),#6);
#2=PRODUCT_DEFINITION_CONTEXT('',#11,'design');
#3=APPLICATION_PROTOCOL_DEFINITION('INTERNATIONAL STANDARD','automotive_design',1994,#11);
#4=PRODUCT_CATEGORY_RELATIONSHIP('NONE','NONE',#12,#13);
#5=SHAPE_DEFINITION_REPRESENTATION(#14,#15);
#6= (GEOMETRIC_REPRESENTATION_CONTEXT(3)GLOBAL_UNCERTAINTY_ASSIGNED_CONTEXT((#18))GLOBAL_UNIT_ASSIGNED_CONTEXT((#20,#21,#22))REPRESENTATION_CONTEXT('NONE','WORKSPACE'));
#10=STYLED_ITEM('',(#24),#25);
#11=APPLICATION_CONTEXT(' ');
#12=PRODUCT_CATEGORY('part','NONE');
#13=PRODUCT_RELATED_PRODUCT_CATEGORY('detail',' ',(#26));
#14=PRODUCT_DEFINITION_SHAPE('NONE','NONE',#27);
#15=ADVANCED_BREP_SHAPE_REPRESENTATION('Ailerons',(#25,#28),#6);
#18=UNCERTAINTY_MEASURE_WITH_UNIT(LENGTH_MEASURE(1.0E-08),#20,'','');
#20= (CONVERSION_BASED_UNIT('METRE',#31)LENGTH_UNIT()NAMED_UNIT(#34));
#21= (NAMED_UNIT(#36)PLANE_ANGLE_UNIT()SI_UNIT($,.RADIAN.));
#22= (NAMED_UNIT(#36)SOLID_ANGLE_UNIT()SI_UNIT($,.STERADIAN.));
#24=PRESENTATION_STYLE_ASSIGNMENT((#42));
#25=MANIFOLD_SOLID_BREP('Ailerons',#43);
#26=PRODUCT('Ailerons','','PART--DESC',(#44));
#27=PRODUCT_DEFINITION('','NONE',#45,#2);
#28=AXIS2_PLACEMENT_3D('',#46,#47,#48);
#31=LENGTH_MEASURE_WITH_UNIT(LENGTH_MEASURE(1.0),#49);
#34=DIMENSIONAL_EXPONENTS(1.0,0.0,0.0,0.0,0.0,0.0,0.0);
#36=DIMENSIONAL_EXPONENTS(0.0,0.0,0.0,0.0,0.0,0.0,0.0);
#42=SURFACE_STYLE_USAGE(.BOTH.,#50);
#43=CLOSED_SHELL('',(#51,#52,#53,#54,#55,#56,#57,#58,#59,#60,#61,#62));
#44=PRODUCT_CONTEXT('',#11,'mechanical');
#45=PRODUCT_DEFINITION_FORMATION_WITH_SPECIFIED_SOURCE(' ','NONE',#26,.NOT_KNOWN.);
#46=CARTESIAN_POINT('',(0.0,0.0,0.0));
#47=DIRECTION('',(0.0,0.0,1.0));
#48=DIRECTION('',(1.0,0.0,0.0));
#49= (NAMED_UNIT(#34)LENGTH_UNIT()SI_UNIT($,.METRE.));
#50=SURFACE_SIDE_STYLE('',(#64));
#51=ADVANCED_FACE('2:1654',(#65),#66,.T.);
#52=ADVANCED_FACE('2:1657',(#67),#68,.F.);
#53=ADVANCED_FACE('2:1660',(#69),#70,.F.);
#54=ADVANCED_FACE('2:1663',(#71),#72,.F.);
#55=ADVANCED_FACE('2:1666',(#73),#74,.F.);
#56=ADVANCED_FACE('2:1669',(#75),#76,.T.);
#57=ADVANCED_FACE('2:1672',(#77),#78,.T.);
#58=ADVANCED_FACE('2:1675',(#79),#80,.T.);
#59=ADVANCED_FACE('2:1678',(#81),#82,.T.);
#60=ADVANCED_FACE('2:1681',(#83),#84,.T.);
#61=ADVANCED_FACE('2:1684',(#85),#86,.F.);
#62=ADVANCED_FACE('2:1687',(#87),#88,.F.);
#64=SURFACE_STYLE_FILL_AREA(#89);
#65=FACE_OUTER_BOUND('',#90,.T.);
#66=PLANE('',#91);
#67=FACE_OUTER_BOUND('',#92,.T.);
#68=PLANE('',#93);
#69=FACE_OUTER_BOUND('',#94,.T.);
#70=PLANE('',#95);
#71=FACE_OUTER_BOUND('',#96,.T.);
#72=PLANE('',#97);
#73=FACE_OUTER_BOUND('',#98,.T.);
#74=PLANE('',#99);
#75=FACE_OUTER_BOUND('',#100,.T.);
#76=PLANE('',#101);
#77=FACE_OUTER_BOUND('',#102,.T.);
#78=PLANE('',#103);
#79=FACE_OUTER_BOUND('',#104,.T.);
#80=PLANE('',#105);
#81=FACE_OUTER_BOUND('',#106,.T.);
#82=PLANE('',#107);
#83=FACE_OUTER_BOUND('',#108,.T.);
#84=PLANE('',#109);
#85=FACE_OUTER_BOUND('',#110,.T.);
#86=PLANE('',#111);
#87=FACE_OUTER_BOUND('',#112,.T.);
#88=PLANE('',#113);
#89=FILL_AREA_STYLE('',(#114));
#90=EDGE_LOOP('',(#115,#116,#117,#118));
#91=AXIS2_PLACEMENT_3D('',#119,#120,#121);
#92=EDGE_LOOP('',(#122,#123,#124,#125));
#93=AXIS2_PLACEMENT_3D('',#126,#127,#128);
#94=EDGE_LOOP('',(#129,#130,#131,#132));
#95=AXIS2_PLACEMENT_3D('',#133,#134,#135);
#96=EDGE_LOOP('',(#136,#137,#138,#139));
#97=AXIS2_PLACEMENT_3D('',#140,#141,#142);
#98=EDGE_LOOP('',(#143,#144,#145,#146));
#99=AXIS2_PLACEMENT_3D('',#147,#148,#149);
#100=EDGE_LOOP('',(#150,#151,#152,#153));
#101=AXIS2_PLACEMENT_3D('',#154,#155,#156);
#102=EDGE_LOOP('',(#157,#158,#159,#160));
#103=AXIS2_PLACEMENT_3D('',#161,#162,#163);
#104=EDGE_LOOP('',(#164,#165,#166,#167));
#105=AXIS2_PLACEMENT_3D('',#168,#169,#170);
#106=EDGE_LOOP('',(#171,#172,#173,#174));
#107=AXIS2_PLACEMENT_3D('',#175,#176,#177);
#108=EDGE_LOOP('',(#178,#179,#180,#181,#182,#183,#184,#185,#186,#187));
#109=AXIS2_PLACEMENT_3D('',#188,#189,#190);
#110=EDGE_LOOP('',(#191,#192,#193,#194,#195,#196,#197,#198,#199,#200));
#111=AXIS2_PLACEMENT_3D('',#201,#202,#203);
#112=EDGE_LOOP('',(#204,#205,#206,#207));
#113=AXIS2_PLACEMENT_3D('',#208,#209,#210);
#114=FILL_AREA_STYLE_COLOUR('',#211);
#115=ORIENTED_EDGE('',*,*,#212,.T.);
#116=ORIENTED_EDGE('',*,*,#213,.T.);
#117=ORIENTED_EDGE('',*,*,#214,.T.);
#118=ORIENTED_EDGE('',*,*,#215,.T.);
#119=CARTESIAN_POINT('',(0.393063809025482,-0.251267985442173,0.00259098245637038));
#120=DIRECTION('',(1.18329135783152E-30,-1.0,-0.0));
#121=DIRECTION('',(-0.0,0.0,-1.0));
#122=ORIENTED_EDGE('',*,*,#216,.F.);
#123=ORIENTED_EDGE('',*,*,#217,.F.);
#124=ORIENTED_EDGE('',*,*,#218,.F.);
#125=ORIENTED_EDGE('',*,*,#219,.F.);
#126=CARTESIAN_POINT('',(0.393113809025482,-0.249026365440113,0.00359098245636972));
#127=DIRECTION('',(1.15510359321961E-15,1.0,0.0));
#128=DIRECTION('',(-1.0,1.15510359321961E-15,0.0));
#129=ORIENTED_EDGE('',*,*,#215,.F.);
#130=ORIENTED_EDGE('',*,*,#220,.F.);
#131=ORIENTED_EDGE('',*,*,#218,.T.);
#132=ORIENTED_EDGE('',*,*,#221,.F.);
#133=CARTESIAN_POINT('',(0.318999224053009,-0.251026365440113,0.00259098245636979));
#134=DIRECTION('',(0.707106781186548,0.707106781186548,-6.42787609686547E-16));
#135=DIRECTION('',(-9.09038955344099E-16,6.9726111936842E-32,-1.0));
#136=ORIENTED_EDGE('',*,*,#213,.F.);
#137=ORIENTED_EDGE('',*,*,#222,.F.);
#138=ORIENTED_EDGE('',*,*,#223,.T.);
#139=ORIENTED_EDGE('',*,*,#224,.F.);
#140=CARTESIAN_POINT('',(0.371113809025482,-0.251026365440113,0.00259098245636974));
#141=DIRECTION('',(-0.707106781186548,0.707106781186548,6.42787609686549E-16));
#142=DIRECTION('',(9.090389553441E-16,-6.9726111936842E-32,1.0));
#143=ORIENTED_EDGE('',*,*,#225,.F.);
#144=ORIENTED_EDGE('',*,*,#226,.F.);
#145=ORIENTED_EDGE('',*,*,#223,.F.);
#146=ORIENTED_EDGE('',*,*,#227,.F.);
#147=CARTESIAN_POINT('',(0.393113809025482,-0.249026365440113,0.00359098245636972));
#148=DIRECTION('',(1.15510359321961E-15,1.0,0.0));
#149=DIRECTION('',(-1.0,1.15510359321961E-15,0.0));
#150=ORIENTED_EDGE('',*,*,#228,.T.);
#151=ORIENTED_EDGE('',*,*,#229,.F.);
#152=ORIENTED_EDGE('',*,*,#230,.T.);
#153=ORIENTED_EDGE('',*,*,#231,.T.);
#154=CARTESIAN_POINT('',(0.384970785769668,-0.223509605444234,0.00259098245636976));
#155=DIRECTION('',(0.947575707145411,0.319531343107173,5.41233724504764E-15));
#156=DIRECTION('',(0.0,1.69383610146574E-14,-1.0));
#157=ORIENTED_EDGE('',*,*,#232,.T.);
#158=ORIENTED_EDGE('',*,*,#233,.T.);
#159=ORIENTED_EDGE('',*,*,#234,.T.);
#160=ORIENTED_EDGE('',*,*,#230,.F.);
#161=CARTESIAN_POINT('',(0.365770785769667,-0.199509605444234,0.0025909824563697));
#162=DIRECTION('',(1.97215226305253E-31,1.0,-2.22044604925031E-16));
#163=DIRECTION('',(0.0,-2.22044604925031E-16,-1.0));
#164=ORIENTED_EDGE('',*,*,#235,.F.);
#165=ORIENTED_EDGE('',*,*,#236,.F.);
#166=ORIENTED_EDGE('',*,*,#233,.F.);
#167=ORIENTED_EDGE('',*,*,#237,.T.);
#168=CARTESIAN_POINT('',(0.325863809025482,-0.223509605444234,0.00259098245636904));
#169=DIRECTION('',(-0.64018439966448,0.768221279597376,-3.66373598126302E-15));
#170=DIRECTION('',(-5.72293855205341E-15,0.0,1.0));
#171=ORIENTED_EDGE('',*,*,#225,.T.);
#172=ORIENTED_EDGE('',*,*,#238,.F.);
#173=ORIENTED_EDGE('',*,*,#228,.F.);
#174=ORIENTED_EDGE('',*,*,#239,.F.);
#175=CARTESIAN_POINT('',(0.393063809025482,-0.248267985442173,0.00259098245637016));
#176=DIRECTION('',(1.0,1.18329135783152E-30,5.75616095080128E-15));
#177=DIRECTION('',(-5.75616095080128E-15,0.0,1.0));
#178=ORIENTED_EDGE('',*,*,#212,.F.);
#179=ORIENTED_EDGE('',*,*,#221,.T.);
#180=ORIENTED_EDGE('',*,*,#217,.T.);
#181=ORIENTED_EDGE('',*,*,#240,.F.);
#182=ORIENTED_EDGE('',*,*,#237,.F.);
#183=ORIENTED_EDGE('',*,*,#232,.F.);
#184=ORIENTED_EDGE('',*,*,#229,.T.);
#185=ORIENTED_EDGE('',*,*,#238,.T.);
#186=ORIENTED_EDGE('',*,*,#227,.T.);
#187=ORIENTED_EDGE('',*,*,#222,.T.);
#188=CARTESIAN_POINT('',(0.393063809025482,-0.263509605444233,0.0015909824563706));
#189=DIRECTION('',(5.75616095080128E-15,-2.22044604925031E-16,-1.0));
#190=DIRECTION('',(0.0,-1.0,2.22044604925031E-16));
#191=ORIENTED_EDGE('',*,*,#241,.F.);
#192=ORIENTED_EDGE('',*,*,#219,.T.);
#193=ORIENTED_EDGE('',*,*,#220,.T.);
#194=ORIENTED_EDGE('',*,*,#214,.F.);
#195=ORIENTED_EDGE('',*,*,#224,.T.);
#196=ORIENTED_EDGE('',*,*,#226,.T.);
#197=ORIENTED_EDGE('',*,*,#239,.T.);
#198=ORIENTED_EDGE('',*,*,#231,.F.);
#199=ORIENTED_EDGE('',*,*,#234,.F.);
#200=ORIENTED_EDGE('',*,*,#236,.T.);
#201=CARTESIAN_POINT('',(0.393063809025482,-0.263509605444233,0.0035909824563706));
#202=DIRECTION('',(5.75616095080128E-15,-2.22044604925031E-16,-1.0));
#203=DIRECTION('',(0.0,-1.0,2.22044604925031E-16));
#204=ORIENTED_EDGE('',*,*,#216,.T.);
#205=ORIENTED_EDGE('',*,*,#241,.T.);
#206=ORIENTED_EDGE('',*,*,#235,.T.);
#207=ORIENTED_EDGE('',*,*,#240,.T.);
#208=CARTESIAN_POINT('',(0.297063809025482,-0.248267985442173,0.00259098245636961));
#209=DIRECTION('',(1.0,1.18329135783152E-30,5.75616095080128E-15));
#210=DIRECTION('',(-5.75616095080128E-15,0.0,1.0));
#211=COLOUR_RGB('',0.560784339904785,0.686274528503418,0.560784339904785);
#212=EDGE_CURVE('2:1690',#242,#243,#244,.T.);
#213=EDGE_CURVE('2:1693',#243,#245,#246,.T.);
#214=EDGE_CURVE('2:1696',#245,#247,#248,.T.);
#215=EDGE_CURVE('2:1699',#247,#242,#249,.T.);
#216=EDGE_CURVE('2:1702',#250,#251,#252,.T.);
#217=EDGE_CURVE('2:1705',#253,#250,#254,.T.);
#218=EDGE_CURVE('2:1708',#255,#253,#256,.F.);
#219=EDGE_CURVE('2:1711',#251,#255,#257,.T.);
#220=EDGE_CURVE('2:1714',#255,#247,#258,.T.);
#221=EDGE_CURVE('2:1717',#242,#253,#259,.T.);
#222=EDGE_CURVE('2:1720',#260,#243,#261,.T.);
#223=EDGE_CURVE('2:1723',#260,#262,#263,.T.);
#224=EDGE_CURVE('2:1726',#245,#262,#264,.T.);
#225=EDGE_CURVE('2:1729',#265,#266,#267,.T.);
#226=EDGE_CURVE('2:1732',#262,#265,#268,.T.);
#227=EDGE_CURVE('2:1735',#266,#260,#269,.T.);
#228=EDGE_CURVE('2:1738',#270,#271,#272,.F.);
#229=EDGE_CURVE('2:1741',#273,#271,#274,.T.);
#230=EDGE_CURVE('2:1744',#273,#275,#276,.T.);
#231=EDGE_CURVE('2:1747',#275,#270,#277,.T.);
#232=EDGE_CURVE('2:1750',#273,#278,#279,.F.);
#233=EDGE_CURVE('2:1753',#278,#280,#281,.T.);
#234=EDGE_CURVE('2:1756',#280,#275,#282,.T.);
#235=EDGE_CURVE('2:1759',#283,#284,#285,.F.);
#236=EDGE_CURVE('2:1762',#280,#283,#286,.F.);
#237=EDGE_CURVE('2:1765',#278,#284,#287,.F.);
#238=EDGE_CURVE('2:1768',#271,#266,#288,.F.);
#239=EDGE_CURVE('2:1771',#265,#270,#289,.T.);
#240=EDGE_CURVE('2:1774',#284,#250,#290,.T.);
#241=EDGE_CURVE('2:1777',#251,#283,#291,.T.);
#242=VERTEX_POINT('',#292);
#243=VERTEX_POINT('',#293);
#244=LINE('',#294,#295);
#245=VERTEX_POINT('',#296);
#246=LINE('',#297,#298);
#247=VERTEX_POINT('',#299);
#248=LINE('',#300,#301);
#249=LINE('',#302,#303);
#250=VERTEX_POINT('',#304);
#251=VERTEX_POINT('',#305);
#252=LINE('',#306,#307);
#253=VERTEX_POINT('',#308);
#254=LINE('',#309,#310);
#255=VERTEX_POINT('',#311);
#256=LINE('',#312,#313);
#257=LINE('',#314,#315);
#258=LINE('',#316,#317);
#259=LINE('',#318,#319);
#260=VERTEX_POINT('',#320);
#261=LINE('',#321,#322);
#262=VERTEX_POINT('',#323);
#263=LINE('',#324,#325);
#264=LINE('',#326,#327);
#265=VERTEX_POINT('',#328);
#266=VERTEX_POINT('',#329);
#267=LINE('',#330,#331);
#268=LINE('',#332,#333);
#269=LINE('',#334,#335);
#270=VERTEX_POINT('',#336);
#271=VERTEX_POINT('',#337);
#272=LINE('',#338,#339);
#273=VERTEX_POINT('',#340);
#274=LINE('',#341,#342);
#275=VERTEX_POINT('',#343);
#276=LINE('',#344,#345);
#277=LINE('',#346,#347);
#278=VERTEX_POINT('',#348);
#279=LINE('',#349,#350);
#280=VERTEX_POINT('',#351);
#281=LINE('',#352,#353);
#282=LINE('',#354,#355);
#283=VERTEX_POINT('',#356);
#284=VERTEX_POINT('',#357);
#285=LINE('',#358,#359);
#286=LINE('',#360,#361);
#287=LINE('',#362,#363);
#288=LINE('',#364,#365);
#289=LINE('',#366,#367);
#290=LINE('',#368,#369);
#291=LINE('',#370,#371);
#292=CARTESIAN_POINT('',(0.319240844055069,-0.251267985442173,0.00159098245636979));
#293=CARTESIAN_POINT('',(0.370872189023422,-0.251267985442173,0.00159098245636974));
#294=CARTESIAN_POINT('',(0.369060162782364,-0.251267985442173,0.00159098245637062));
#295=VECTOR('',#372,1.0);
#296=CARTESIAN_POINT('',(0.370872189023422,-0.251267985442173,0.00359098245637047));
#297=CARTESIAN_POINT('',(0.370872189023422,-0.251267985442173,0.00259098245637007));
#298=VECTOR('',#373,1.0);
#299=CARTESIAN_POINT('',(0.319240844055069,-0.251267985442173,0.00359098245636979));
#300=CARTESIAN_POINT('',(0.369060162782364,-0.251267985442173,0.00359098245637062));
#301=VECTOR('',#374,1.0);
#302=CARTESIAN_POINT('',(0.319240844055069,-0.251267985442173,0.00259098245637012));
#303=VECTOR('',#375,1.0);
#304=CARTESIAN_POINT('',(0.297063809025482,-0.249026365440113,0.00159098245636981));
#305=CARTESIAN_POINT('',(0.297063809025482,-0.249026365440113,0.00359098245636981));
#306=CARTESIAN_POINT('',(0.297063809025482,-0.249026365440113,0.00309098245636939));
#307=VECTOR('',#376,1.0);
#308=CARTESIAN_POINT('',(0.316999224053009,-0.249026365440113,0.00159098245636979));
#309=CARTESIAN_POINT('',(0.393088809025482,-0.249026365440113,0.00159098245636972));
#310=VECTOR('',#377,1.0);
#311=CARTESIAN_POINT('',(0.316999224053009,-0.249026365440113,0.00359098245636979));
#312=CARTESIAN_POINT('',(0.316999224053009,-0.249026365440113,0.00309098245636979));
#313=VECTOR('',#378,1.0);
#314=CARTESIAN_POINT('',(0.393088809025482,-0.249026365440113,0.00359098245636972));
#315=VECTOR('',#379,1.0);
#316=CARTESIAN_POINT('',(0.340636180297157,-0.272663321684261,0.00359098245636977));
#317=VECTOR('',#380,0.999999999999999);
#318=CARTESIAN_POINT('',(0.340636180297157,-0.272663321684261,0.00159098245636977));
#319=VECTOR('',#381,0.999999999999999);
#320=CARTESIAN_POINT('',(0.373113809025482,-0.249026365440113,0.00159098245636974));
#321=CARTESIAN_POINT('',(0.373480499024452,-0.248659675441143,0.00159098245636974));
#322=VECTOR('',#382,0.999999999999999);
#323=CARTESIAN_POINT('',(0.373113809025482,-0.249026365440113,0.00359098245636974));
#324=CARTESIAN_POINT('',(0.373113809025482,-0.249026365440113,0.00309098245636974));
#325=VECTOR('',#383,1.0);
#326=CARTESIAN_POINT('',(0.373480499024452,-0.248659675441143,0.00359098245636974));
#327=VECTOR('',#384,0.999999999999999);
#328=CARTESIAN_POINT('',(0.393063809025482,-0.249026365440113,0.00359098245636972));
#329=CARTESIAN_POINT('',(0.393063809025482,-0.249026365440113,0.00159098245636972));
#330=CARTESIAN_POINT('',(0.393063809025482,-0.249026365440113,0.00309098245636994));
#331=VECTOR('',#385,1.0);
#332=CARTESIAN_POINT('',(0.393088809025482,-0.249026365440113,0.00359098245636972));
#333=VECTOR('',#386,1.0);
#334=CARTESIAN_POINT('',(0.393088809025482,-0.249026365440113,0.00159098245636972));
#335=VECTOR('',#387,1.0);
#336=CARTESIAN_POINT('',(0.393063809025482,-0.247509605444233,0.0035909824563706));
#337=CARTESIAN_POINT('',(0.393063809025482,-0.247509605444233,0.0015909824563706));
#338=CARTESIAN_POINT('',(0.393063809025482,-0.247509605444234,0.00259098245637027));
#339=VECTOR('',#388,1.0);
#340=CARTESIAN_POINT('',(0.376877762513854,-0.199509605444234,0.00159098245637049));
#341=CARTESIAN_POINT('',(0.391439538504774,-0.24269280321041,0.00159098245637059));
#342=VECTOR('',#389,1.0);
#343=CARTESIAN_POINT('',(0.376877762513854,-0.199509605444234,0.00359098245637049));
#344=CARTESIAN_POINT('',(0.376877762513854,-0.199509605444234,0.00259098245636974));
#345=VECTOR('',#390,1.0);
#346=CARTESIAN_POINT('',(0.391439538504774,-0.24269280321041,0.00359098245637059));
#347=VECTOR('',#391,1.0);
#348=CARTESIAN_POINT('',(0.354663809025482,-0.199509605444234,0.00159098245637036));
#349=CARTESIAN_POINT('',(0.379417297397574,-0.199509605444234,0.00159098245637051));
#350=VECTOR('',#392,1.0);
#351=CARTESIAN_POINT('',(0.354663809025482,-0.199509605444234,0.00359098245637036));
#352=CARTESIAN_POINT('',(0.354663809025482,-0.199509605444234,0.00259098245636942));
#353=VECTOR('',#393,1.0);
#354=CARTESIAN_POINT('',(0.379417297397574,-0.199509605444234,0.00359098245637051));
#355=VECTOR('',#394,1.0);
#356=CARTESIAN_POINT('',(0.297063809025482,-0.247509605444234,0.00359098245637005));
#357=CARTESIAN_POINT('',(0.297063809025482,-0.247509605444234,0.00159098245637005));
#358=CARTESIAN_POINT('',(0.297063809025482,-0.247509605444234,0.00259098245636972));
#359=VECTOR('',#395,1.0);
#360=CARTESIAN_POINT('',(0.335857251648433,-0.215181736591774,0.00359098245637026));
#361=VECTOR('',#396,1.0);
#362=CARTESIAN_POINT('',(0.335857251648433,-0.215181736591774,0.00159098245637026));
#363=VECTOR('',#397,1.0);
#364=CARTESIAN_POINT('',(0.393063809025482,-0.255888795443203,0.0015909824563706));
#365=VECTOR('',#398,1.0);
#366=CARTESIAN_POINT('',(0.393063809025482,-0.255888795443203,0.0035909824563706));
#367=VECTOR('',#399,1.0);
#368=CARTESIAN_POINT('',(0.297063809025482,-0.248828390442688,0.00159098245637005));
#369=VECTOR('',#400,1.0);
#370=CARTESIAN_POINT('',(0.297063809025482,-0.255888795443203,0.00359098245637005));
#371=VECTOR('',#401,1.0);
#372=DIRECTION('',(1.0,1.18329135783152E-30,-9.09038955344099E-16));
#373=DIRECTION('',(9.090389553441E-16,1.07565793979087E-45,1.0));
#374=DIRECTION('',(-1.0,-1.18329135783152E-30,9.09038955344099E-16));
#375=DIRECTION('',(-9.09038955344099E-16,-1.07565793979086E-45,-1.0));
#376=DIRECTION('',(-5.75616095080128E-15,6.64896219742097E-30,1.0));
#377=DIRECTION('',(-1.0,1.15510359321961E-15,-5.75616095080128E-15));
#378=DIRECTION('',(9.09038955344099E-16,-1.05003416369457E-30,1.0));
#379=DIRECTION('',(1.0,-1.15510359321961E-15,5.75616095080128E-15));
#380=DIRECTION('',(0.707106781186548,-0.707106781186548,4.22722968778117E-15));
#381=DIRECTION('',(-0.707106781186548,0.707106781186548,-4.22722968778117E-15));
#382=DIRECTION('',(-0.707106781186548,-0.707106781186548,-3.91321119604441E-15));
#383=DIRECTION('',(9.09038955344099E-16,-1.05003416369457E-30,1.0));
#384=DIRECTION('',(0.707106781186548,0.707106781186548,3.91321119604441E-15));
#385=DIRECTION('',(5.75616095080128E-15,-6.64896219742097E-30,-1.0));
#386=DIRECTION('',(1.0,-1.15510359321961E-15,5.75616095080128E-15));
#387=DIRECTION('',(-1.0,1.15510359321961E-15,-5.75616095080128E-15));
#388=DIRECTION('',(-5.75616095080128E-15,-6.81121550737042E-45,1.0));
#389=DIRECTION('',(0.319531343107173,-0.947575707145411,2.04967791328026E-15));
#390=DIRECTION('',(-5.78664840660335E-15,2.22044604925031E-16,1.0));
#391=DIRECTION('',(0.319531343107173,-0.947575707145411,2.04967791328026E-15));
#392=DIRECTION('',(1.0,1.08090925790031E-30,5.75616095080128E-15));
#393=DIRECTION('',(-5.45648502614337E-15,2.22044604925031E-16,1.0));
#394=DIRECTION('',(1.0,1.08090925790031E-30,5.75616095080128E-15));
#395=DIRECTION('',(-5.75616095080128E-15,-6.81121550737042E-45,1.0));
#396=DIRECTION('',(0.768221279597376,0.64018439966448,4.27985583909034E-15));
#397=DIRECTION('',(0.768221279597376,0.64018439966448,4.27985583909034E-15));
#398=DIRECTION('',(9.48331263740412E-32,1.0,-2.22044604925031E-16));
#399=DIRECTION('',(9.48331263740412E-32,1.0,-2.22044604925031E-16));
#400=DIRECTION('',(1.18329135783152E-30,-1.0,6.81121550737042E-45));
#401=DIRECTION('',(9.48331263740412E-32,1.0,-2.22044604925031E-16));
#402=PRESENTATION_LAYER_ASSIGNMENT('9','Calque0',(#25));
ENDSEC;
END-ISO-10303-21;
